{
  "accessors": [
    {
      "bufferView": 2,
      "componentType": 5126,
      "count": 313,
      "max": [
        -0.14654122292995453,
        0.32542312145233154,
        0.8554733991622925
      ],
      "min": [
        -0.4994519352912903,
        -0.029646381735801697,
        0.5021045207977295
      ],
      "type": "VEC3"
    },
    {
      "bufferView": 2,
      "byteOffset": 3756,
      "componentType": 5126,
      "count": 313,
      "max": [
        0.9827863574028015,
        0.9972337484359741,
        0.998416006565094
      ],
      "min": [
        -0.9999561309814453,
        -0.9972337484359741,
        -0.996957540512085
      ],
      "type": "VEC3"
    },
    {
      "bufferView": 1,
      "componentType": 5126,
      "count": 313,
      "max": [
        1.0,
        1.0
      ],
      "min": [
        0.0,
        0.0
      ],
      "type": "VEC2"
    },
    {
      "bufferView": 0,
      "componentType": 5125,
      "count": 1758,
      "type": "SCALAR"
    },
    {
      "bufferView": 2,
      "byteOffset": 7512,
      "componentType": 5126,
      "count": 702,
      "max": [
        -0.14126087725162506,
        0.33078932762145996,
        0.863538384437561
      ],
      "min": [
        -0.504827618598938,
        -0.03501257300376892,
        0.4995969235897064
      ],
      "type": "VEC3"
    },
    {
      "bufferView": 2,
      "byteOffset": 15936,
      "componentType": 5126,
      "count": 702,
      "max": [
        0.9827863574028015,
        0.9972337484359741,
        0.9998500943183899
      ],
      "min": [
        -0.9999561309814453,
        -0.9972337484359741,
        -0.9836105704307556
      ],
      "type": "VEC3"
    },
    {
      "bufferView": 1,
      "byteOffset": 2504,
      "componentType": 5126,
      "count": 702,
      "max": [
        1.0,
        1.0
      ],
      "min": [
        0.0,
        -0.0
      ],
      "type": "VEC2"
    },
    {
      "bufferView": 0,
      "byteOffset": 7032,
      "componentType": 5125,
      "count": 1056,
      "type": "SCALAR"
    },
    {
      "bufferView": 2,
      "byteOffset": 24360,
      "componentType": 5126,
      "count": 314,
      "max": [
        0.4994519352912903,
        0.32542312145233154,
        0.8554733991622925
      ],
      "min": [
        0.14654122292995453,
        -0.029646381735801697,
        0.5021045207977295
      ],
      "type": "VEC3"
    },
    {
      "bufferView": 2,
      "byteOffset": 28128,
      "componentType": 5126,
      "count": 314,
      "max": [
        0.9999561309814453,
        0.9972337484359741,
        0.998416006565094
      ],
      "min": [
        -0.9827863574028015,
        -0.9972337484359741,
        -0.996957540512085
      ],
      "type": "VEC3"
    },
    {
      "bufferView": 1,
      "byteOffset": 8120,
      "componentType": 5126,
      "count": 314,
      "max": [
        1.0,
        1.0
      ],
      "min": [
        0.0,
        0.0
      ],
      "type": "VEC2"
    },
    {
      "bufferView": 0,
      "byteOffset": 11256,
      "componentType": 5125,
      "count": 1761,
      "type": "SCALAR"
    },
    {
      "bufferView": 2,
      "byteOffset": 31896,
      "componentType": 5126,
      "count": 702,
      "max": [
        0.504827618598938,
        0.33078932762145996,
        0.863538384437561
      ],
      "min": [
        0.14126087725162506,
        -0.03501257300376892,
        0.4995969235897064
      ],
      "type": "VEC3"
    },
    {
      "bufferView": 2,
      "byteOffset": 40320,
      "componentType": 5126,
      "count": 702,
      "max": [
        0.9999561309814453,
        0.9972337484359741,
        0.9998500943183899
      ],
      "min": [
        -0.9827863574028015,
        -0.9972337484359741,
        -0.9836105704307556
      ],
      "type": "VEC3"
    },
    {
      "bufferView": 1,
      "byteOffset": 10632,
      "componentType": 5126,
      "count": 702,
      "max": [
        1.0,
        1.0
      ],
      "min": [
        0.0,
        -0.0
      ],
      "type": "VEC2"
    },
    {
      "bufferView": 0,
      "byteOffset": 18300,
      "componentType": 5125,
      "count": 1056,
      "type": "SCALAR"
    },
    {
      "bufferView": 2,
      "byteOffset": 48744,
      "componentType": 5126,
      "count": 19661,
      "max": [
        9.970233917236328,
        1.445235013961792,
        2.3147451877593994
      ],
      "min": [
        -9.970233917236328,
        -16.268930435180664,
        -1.723315954208374
      ],
      "type": "VEC3"
    },
    {
      "bufferView": 2,
      "byteOffset": 284676,
      "componentType": 5126,
      "count": 19661,
      "max": [
        0.9999978542327881,
        0.9999864101409912,
        0.9999978542327881
      ],
      "min": [
        -0.9999979138374329,
        -0.999961256980896,
        -0.9999959468841553
      ],
      "type": "VEC3"
    },
    {
      "bufferView": 3,
      "componentType": 5126,
      "count": 19661,
      "max": [
        0.9999999403953552,
        0.9999666213989258,
        0.9999755024909973,
        1.0
      ],
      "min": [
        -1.0,
        -0.9997289776802063,
        -0.9999679327011108,
        -1.0
      ],
      "type": "VEC4"
    },
    {
      "bufferView": 1,
      "byteOffset": 16248,
      "componentType": 5126,
      "count": 19661,
      "max": [
        0.9529680013656616,
        0.9980120062828064
      ],
      "min": [
        0.0019150000298395753,
        0.0009379999828524888
      ],
      "type": "VEC2"
    },
    {
      "bufferView": 0,
      "byteOffset": 22524,
      "componentType": 5125,
      "count": 107292,
      "type": "SCALAR"
    }
  ],
  "asset": {
    "extras": {
      "author": "Harshit Prajapati (https://sketchfab.com/harshit77)",
      "license": "CC-BY-4.0 (http://creativecommons.org/licenses/by/4.0/)",
      "source": "https://sketchfab.com/3d-models/male-base-muscular-anatomy-0954aa04666d45aab9633009318f7b66",
      "title": "Male base muscular anatomy"
    },
    "generator": "Sketchfab-13.37.1",
    "version": "2.0"
  },
  "bufferViews": [
    {
      "buffer": 0,
      "byteLength": 451692,
      "name": "floatBufferViews",
      "target": 34963
    },
    {
      "buffer": 0,
      "byteLength": 173536,
      "byteOffset": 451692,
      "byteStride": 8,
      "name": "floatBufferViews",
      "target": 34962
    },
    {
      "buffer": 0,
      "byteLength": 520608,
      "byteOffset": 625228,
      "byteStride": 12,
      "name": "floatBufferViews",
      "target": 34962
    },
    {
      "buffer": 0,
      "byteLength": 314576,
      "byteOffset": 1145836,
      "byteStride": 16,
      "name": "floatBufferViews",
      "target": 34962
    }
  ],
  "buffers": [
    {
      "byteLength": 1460412,
      "uri": "scene.bin"
    }
  ],
  "images": [
    {
      "uri": "textures/material_baseColor.jpeg"
    },
    {
      "uri": "textures/Body_Low_SP_blinn1SG1_baseColor.png"
    },
    {
      "uri": "textures/Body_Low_SP_blinn1SG1_metallicRoughness.png"
    },
    {
      "uri": "textures/Body_Low_SP_blinn1SG1_normal.jpeg"
    }
  ],
  "materials": [
    {
      "doubleSided": true,
      "name": "material",
      "pbrMetallicRoughness": {
        "baseColorTexture": {
          "index": 0
        },
        "metallicFactor": 0.0
      }
    },
    {
      "alphaMode": "BLEND",
      "doubleSided": true,
      "name": "Eye_TransP",
      "pbrMetallicRoughness": {
        "baseColorFactor": [
          0.5,
          0.5,
          0.5,
          0.1
        ],
        "metallicFactor": 0.5
      }
    },
    {
      "doubleSided": true,
      "name": "Body_Low_SP_blinn1SG1",
      "normalTexture": {
        "index": 3
      },
      "occlusionTexture": {
        "index": 2
      },
      "pbrMetallicRoughness": {
        "baseColorTexture": {
          "index": 1
        },
        "metallicFactor": 0.0,
        "metallicRoughnessTexture": {
          "index": 2
        }
      }
    }
  ],
  "meshes": [
    {
      "name": "Eye2_Eye_0",
      "primitives": [
        {
          "attributes": {
            "NORMAL": 1,
            "POSITION": 0,
            "TEXCOORD_0": 2
          },
          "indices": 3,
          "material": 0,
          "mode": 4
        }
      ]
    },
    {
      "name": "Eye2_Eye_TransP_0",
      "primitives": [
        {
          "attributes": {
            "NORMAL": 5,
            "POSITION": 4,
            "TEXCOORD_0": 6
          },
          "indices": 7,
          "material": 1,
          "mode": 4
        }
      ]
    },
    {
      "name": "Eye3_Eye_0",
      "primitives": [
        {
          "attributes": {
            "NORMAL": 9,
            "POSITION": 8,
            "TEXCOORD_0": 10
          },
          "indices": 11,
          "material": 0,
          "mode": 4
        }
      ]
    },
    {
      "name": "Eye3_Eye_TransP_0",
      "primitives": [
        {
          "attributes": {
            "NORMAL": 13,
            "POSITION": 12,
            "TEXCOORD_0": 14
          },
          "indices": 15,
          "material": 1,
          "mode": 4
        }
      ]
    },
    {
      "name": "body_low__Body_Low_SP_blinn1SG1_0",
      "primitives": [
        {
          "attributes": {
            "NORMAL": 17,
            "POSITION": 16,
            "TANGENT": 18,
            "TEXCOORD_0": 19
          },
          "indices": 20,
          "material": 2,
          "mode": 4
        }
      ]
    }
  ],
  "nodes": [
    {
      "children": [
        1
      ],
      "matrix": [
        1.0,
        0.0,
        0.0,
        0.0,
        0.0,
        2.220446049250313e-16,
        -1.0,
        0.0,
        0.0,
        1.0,
        2.220446049250313e-16,
        0.0,
        0.0,
        0.0,
        0.0,
        1.0
      ],
      "name": "Sketchfab_model"
    },
    {
      "children": [
        2
      ],
      "matrix": [
        0.009999999776482582,
        0.0,
        0.0,
        0.0,
        0.0,
        0.0,
        0.009999999776482582,
        0.0,
        0.0,
        -0.009999999776482582,
        0.0,
        0.0,
        0.0,
        0.0,
        0.0,
        1.0
      ],
      "name": "ceb5966b452a4b5ab0581f3f12f30fc7.fbx"
    },
    {
      "children": [
        3,
        6,
        9
      ],
      "name": "RootNode"
    },
    {
      "children": [
        4,
        5
      ],
      "name": "Eye2"
    },
    {
      "mesh": 0,
      "name": "Eye2_Eye_0"
    },
    {
      "mesh": 1,
      "name": "Eye2_Eye_TransP_0"
    },
    {
      "children": [
        7,
        8
      ],
      "name": "Eye3"
    },
    {
      "mesh": 2,
      "name": "Eye3_Eye_0"
    },
    {
      "mesh": 3,
      "name": "Eye3_Eye_TransP_0"
    },
    {
      "children": [
        10
      ],
      "name": "body_low"
    },
    {
      "mesh": 4,
      "name": "body_low__Body_Low_SP_blinn1SG1_0"
    }
  ],
  "samplers": [
    {
      "magFilter": 9729,
      "minFilter": 9987,
      "wrapS": 10497,
      "wrapT": 10497
    }
  ],
  "scene": 0,
  "scenes": [
    {
      "name": "Sketchfab_Scene",
      "nodes": [
        0
      ]
    }
  ],
  "textures": [
    {
      "sampler": 0,
      "source": 0
    },
    {
      "sampler": 0,
      "source": 1
    },
    {
      "sampler": 0,
      "source": 2
    },
    {
      "sampler": 0,
      "source": 3
    }
  ]
}
